<svg width="95" height="28" viewBox="0 0 95 28" fill="none" xmlns="http://www.w3.org/2000/svg">
<g opacity="0.8">
<path d="M46.3988 9.70428C47.0259 9.70428 47.1302 9.80875 47.1302 10.4318V16.3508C47.1303 17.3892 47.2347 18.0126 47.4437 18.4279C47.8618 19.1548 48.6984 19.5695 49.639 19.5695C50.5797 19.5695 51.4163 19.1548 51.8344 18.4279C52.0434 17.9087 52.1478 17.3891 52.1478 16.3508V10.4318C52.1478 9.80875 52.2521 9.70428 52.8793 9.70428H53.4017C54.0288 9.70429 54.1332 9.80875 54.1332 10.4318V16.5588C54.1331 18.22 53.8198 19.1548 53.0883 19.9855C52.2521 20.9201 50.9977 21.4386 49.639 21.4387C48.1758 21.4387 47.026 20.92 46.1898 19.9855C45.4582 19.1548 45.145 18.22 45.1449 16.5588V10.4318C45.1449 9.80875 45.2492 9.70428 45.8763 9.70428H46.3988ZM58.3969 0.863464C59.0239 0.863464 59.1283 0.96727 59.1283 1.59003V11.0402H59.2328C60.3825 9.79407 61.5331 9.17108 63.2054 9.17108C66.3407 9.17134 68.6399 11.6635 68.64 15.09C68.64 18.517 66.3401 21.1135 63.1 21.1135C61.5324 21.1133 60.2779 20.4904 59.1283 19.2443V20.0754C59.1283 20.6981 59.0238 20.8019 58.3969 20.8019H57.8744C57.2474 20.8019 57.143 20.6981 57.1429 20.0754V1.59003C57.143 0.96728 57.2474 0.863467 57.8744 0.863464H58.3969ZM86.931 0.863464C87.5577 0.863503 87.6624 0.967385 87.6625 1.59003V13.6369L91.4252 9.79413C91.7386 9.48272 91.7387 9.4826 92.2611 9.4826H93.097C93.6194 9.4826 93.8293 9.58644 93.8295 9.89764C93.8295 10.0015 93.7241 10.2095 93.515 10.4172L89.5433 14.3635L94.5609 19.9709C94.77 20.1786 94.8744 20.3866 94.8744 20.4904C94.8744 20.8019 94.6653 20.9054 94.1429 20.9055H93.306C92.7838 20.9055 92.7836 20.9054 92.4701 20.5939L88.1849 15.8176L87.6625 16.0246V19.9709C87.6625 20.5938 87.5578 20.6984 86.931 20.6984H86.4076C85.7809 20.6984 85.6761 20.5938 85.6761 19.9709V1.59003C85.6762 0.967432 85.781 0.863518 86.4076 0.863464H86.931ZM81.2875 9.4826C81.9145 9.4826 82.0189 9.58648 82.0189 10.2092V20.0754C82.0189 20.6981 81.9145 20.8019 81.2875 20.8019H80.765C80.138 20.8019 80.0336 20.6981 80.0336 20.0754V10.2092C80.0336 9.58648 80.138 9.4826 80.765 9.4826H81.2875ZM41.3597 9.17108C42.1959 9.17108 42.9281 9.48292 43.0326 9.69061C43.03 9.69578 42.9268 9.90066 42.8236 10.1057C42.7192 10.2094 42.7189 10.3134 42.6146 10.4172C42.5101 10.6248 42.4056 10.8328 42.3011 10.9367C42.1966 10.9367 42.1957 11.0402 42.0912 11.0402H41.8822C41.7775 11.04 41.5685 10.9367 41.3597 10.9367C40.5237 10.833 39.5835 11.2481 39.1654 11.9748C38.8518 12.494 38.7474 13.325 38.7474 14.675V19.9709C38.7474 20.594 38.6421 20.6984 38.015 20.6984H37.4926C36.8656 20.6984 36.7611 20.5939 36.7611 19.9709V10.1057C36.7611 9.48272 36.8656 9.37911 37.4926 9.37909H38.015C38.6421 9.37909 38.7474 9.48266 38.7474 10.1057V10.6252C39.7925 9.48306 40.3147 9.17113 41.3597 9.17108ZM76.0609 9.17108C76.897 9.17111 77.6283 9.48293 77.7328 9.69061C77.728 9.70006 77.6259 9.90285 77.5238 10.1057C77.4194 10.2095 77.4193 10.3134 77.3148 10.4172C77.2103 10.6249 77.1059 10.8329 77.0013 10.9367C76.897 10.9368 76.8968 11.0402 76.7924 11.0402H76.5834C76.4789 11.0402 76.2699 10.9367 76.0609 10.9367C75.2248 10.8329 74.2837 11.2479 73.8656 11.9748C73.552 12.494 73.4476 13.325 73.4476 14.675V19.9709C73.4476 20.594 73.3433 20.6984 72.7162 20.6984H72.1937C71.5666 20.6984 71.4623 20.594 71.4623 19.9709V10.1057C71.4623 9.48266 71.5666 9.37909 72.1937 9.37909H72.7162C73.3433 9.37909 73.4476 9.48267 73.4476 10.1057V10.6252C74.4928 9.48288 75.0157 9.17108 76.0609 9.17108ZM62.7865 11.0402C60.5919 10.9366 59.024 12.5981 59.0238 15.09C59.0238 17.5822 60.5918 19.3476 62.7865 19.3478C64.9814 19.3478 66.5502 17.5823 66.5502 15.09C66.55 12.8056 64.9813 11.0402 62.7865 11.0402ZM81.183 3.66718C81.9146 3.77108 82.5414 4.3944 82.5414 5.12128C82.5413 5.84811 81.9145 6.47079 81.183 6.47089C80.4515 6.47089 79.8238 5.84833 79.8236 5.01776C79.8236 4.29084 80.4513 3.66718 81.183 3.66718Z" fill="white"/>
<path fill-rule="evenodd" clip-rule="evenodd" d="M14.1845 8.85962C14.3935 9.06731 14.8116 9.06731 15.0206 8.85962L18.7834 5.225C18.9924 5.01731 18.9924 4.60192 18.7834 4.39423L15.0206 0.655769C14.8116 0.448077 14.3935 0.448077 14.1845 0.655769L10.4217 4.29038C10.2127 4.49808 10.2127 4.91346 10.4217 5.12115L14.1845 8.85962ZM10.4217 23.5019L14.1845 27.2404C14.3935 27.448 14.8116 27.448 15.0206 27.2404L18.7834 23.5019C18.9924 23.2942 18.9924 22.8788 18.7834 22.6711L15.0206 18.9327C14.8116 18.725 14.3935 18.725 14.1845 18.9327L10.4217 22.6711C10.2127 22.8788 10.2127 23.2942 10.4217 23.5019ZM24.3234 17.9981C24.1143 18.2058 23.6962 18.2058 23.4872 17.9981L19.7245 14.2597C19.5154 14.052 19.5154 13.6366 19.7245 13.4289L23.4872 9.69044C23.6962 9.48275 24.1143 9.48275 24.3234 9.69044L28.0861 13.4289C28.2951 13.6366 28.2951 14.052 28.0861 14.2597L24.3234 17.9981ZM9.4811 23.6057C9.69014 23.398 9.89918 23.5019 9.89918 23.8134H10.0037V26.3057C10.0037 26.6173 9.79466 26.7211 9.4811 26.6173L8.01781 25.9942C7.70425 25.7865 7.70425 25.475 7.91329 25.2673L9.4811 23.6057ZM21.1874 25.9942C21.501 25.8903 21.501 25.5788 21.292 25.2673L19.6196 23.6057C19.4106 23.398 19.2015 23.5019 19.2015 23.8134V26.3057C19.2015 26.6173 19.4106 26.825 19.7241 26.6173L21.1874 25.9942ZM23.1733 18.5173C23.4869 18.5173 23.8004 18.8288 23.8004 19.1404V22.4635C23.8004 22.775 23.4869 23.0865 23.1733 23.0865H19.8287C19.5151 23.0865 19.2015 22.775 19.2015 22.4635V19.1404C19.2015 18.8288 19.5151 18.5173 19.8287 18.5173H23.1733ZM26.7273 7.40583C26.6228 7.09429 26.3092 7.09429 25.9957 7.30198L24.3234 8.96352C24.1143 9.17121 24.2188 9.37891 24.5324 9.37891H27.0409C27.3545 9.37891 27.5635 9.17121 27.3545 8.85967L26.7273 7.40583ZM21.1874 1.90196C21.501 2.00581 21.501 2.31734 21.292 2.62888L19.6196 4.29042C19.4106 4.49811 19.2015 4.39427 19.2015 4.08273V1.59042C19.2015 1.27888 19.4106 1.17504 19.7241 1.27888L21.1874 1.90196ZM3.21002 7.30198C2.89646 7.09429 2.58289 7.09429 2.47837 7.40583L1.74673 8.75583C1.64221 9.06737 1.85125 9.27506 2.16481 9.27506H4.6733C4.98686 9.27506 5.09139 9.06737 4.88234 8.85967L3.21002 7.30198ZM9.27217 4.80957C9.58573 4.80957 9.89929 5.12111 9.89929 5.43265H10.0038V8.75572C10.0038 9.06726 9.69025 9.3788 9.37669 9.3788H6.03203C5.71847 9.3788 5.40491 9.06726 5.40491 8.75572V5.43265C5.40491 5.12111 5.71847 4.80957 6.03203 4.80957H9.27217ZM9.89941 1.59043C9.89941 1.27889 9.69037 1.07119 9.37681 1.27889L8.01804 1.90196C7.70448 2.00581 7.59996 2.31735 7.91352 2.62889L9.58585 4.29043C9.79489 4.49812 10.0039 4.39427 10.0039 4.08273V1.59043H9.89941ZM27.0409 18.6211C27.3545 18.6211 27.459 18.8288 27.3545 19.1403L26.7273 20.5942C26.5183 20.9057 26.2047 20.9057 25.9957 20.698L24.3234 19.0365C24.1143 18.8288 24.2188 18.6211 24.5324 18.6211H27.0409ZM9.89929 19.1404C9.89929 18.8288 9.58573 18.5173 9.27217 18.5173H6.03203C5.71847 18.5173 5.40491 18.8288 5.40491 19.1404V22.4635C5.40491 22.775 5.71847 23.0865 6.03203 23.0865H9.37669C9.69025 23.0865 10.0038 22.775 10.0038 22.4635V19.1404H9.89929ZM4.56852 18.5173C4.88208 18.5173 4.9866 18.725 4.77756 18.9327L3.20975 20.5942C2.89619 20.8019 2.58263 20.8019 2.47811 20.4904L1.85098 19.0365C1.64194 18.725 1.85098 18.5173 2.16455 18.5173H4.56852ZM23.8004 8.75572C23.8004 9.06726 23.4869 9.3788 23.1733 9.3788H19.8287C19.5151 9.3788 19.2015 9.06726 19.2015 8.75572V5.43265C19.2015 5.12111 19.5151 4.80957 19.8287 4.80957H23.1733C23.4869 4.80957 23.8004 5.12111 23.8004 5.43265V8.75572ZM4.88229 17.9981C5.09133 18.2058 5.50941 18.2058 5.71845 17.9981L9.48119 14.3634C9.69023 14.1558 9.69023 13.7404 9.48119 13.5327L5.71845 9.79422C5.50941 9.58652 5.09133 9.58652 4.88229 9.79422L1.11955 13.4288C0.910508 13.6365 0.910508 14.0519 1.11955 14.2596L4.88229 17.9981Z" fill="white"/>
</g>
</svg>
