<svg width="300" height="300" viewBox="0 0 300 300" fill="none" xmlns="http://www.w3.org/2000/svg">
<g clip-path="url(#clip0_2206_194)">
<rect width="300" height="300" rx="150" fill="white"/>
<rect width="300" height="300" fill="#050608"/>
<path d="M197.739 166.664C189.576 158.077 179.69 152.445 168.175 149.583C179.478 146.694 189.271 140.995 197.487 132.355C209.758 119.488 215.881 103.334 216 84H184.395C184.328 95.0784 181.201 104.156 174.96 111.259C168.665 118.428 160.409 121.979 150.166 121.979C140.108 121.979 131.812 118.401 125.372 111.259C118.958 104.182 115.751 95.0784 115.698 84H84C84 103.732 90.109 119.965 102.314 132.74C110.503 141.3 120.363 146.892 131.839 149.702C120.787 152.617 111.047 158.289 102.764 166.903C90.268 179.916 84 196.268 84 216H115.672C115.672 215.907 115.645 215.854 115.645 215.761C115.645 204.59 118.812 195.367 125.107 188.132C131.401 180.896 139.657 177.252 149.901 177.252C159.959 177.252 168.254 180.923 174.695 188.251C181.148 195.566 184.395 204.763 184.395 215.748C184.395 215.841 184.368 215.894 184.368 215.987H215.973C215.973 215.801 216 215.655 216 215.51C216.027 195.751 209.944 179.492 197.739 166.664Z" fill="white"/>
</g>
<defs>
<clipPath id="clip0_2206_194">
<rect width="300" height="300" rx="150" fill="white"/>
</clipPath>
</defs>
</svg>
