<svg width="126" height="30" viewBox="0 0 126 30" fill="none" xmlns="http://www.w3.org/2000/svg">
<path fill-rule="evenodd" clip-rule="evenodd" d="M87.2544 11.9864C88.0406 11.9864 88.677 11.3511 88.677 10.5663C88.677 9.78156 88.0406 9.16495 87.2544 9.16495C86.487 9.16495 85.8506 9.78156 85.8506 10.5663C85.8506 11.3511 86.487 11.9864 87.2544 11.9864ZM79.2698 22.205C82.6203 22.205 84.2675 20.486 84.2675 18.2064C84.2675 15.3855 81.6322 14.7626 79.5572 14.2721C78.2098 13.9536 77.0985 13.6909 77.0985 12.9185C77.0985 12.1711 77.7349 11.6853 78.858 11.6853C80.1308 11.6853 81.4785 12.115 82.4893 13.0493L83.968 11.0686C82.7326 9.92885 81.0854 9.33092 79.1013 9.33092C76.1626 9.33092 74.3657 11.05 74.3657 13.124C74.3657 15.916 76.9129 16.5095 78.9746 16.9899C80.3762 17.3165 81.5534 17.5908 81.5534 18.468C81.5534 19.1967 80.8608 19.8507 79.3821 19.8507C77.6601 19.8507 76.2937 19.0659 75.4139 18.1503L73.954 20.2244C75.1332 21.4015 76.8552 22.205 79.2698 22.205ZM88.4548 12.9576V21.9825H86.0776V12.9576H88.4548ZM94.6037 25.6422C93.0688 25.6422 91.8522 25.2872 90.7104 24.2969L91.7773 22.5965C92.5073 23.3813 93.4806 23.699 94.6037 23.699C95.7455 23.699 97.1119 23.2132 97.1119 21.382V20.5038C96.4006 21.4007 95.4273 21.9052 94.3042 21.9052C92.0581 21.9052 90.3173 20.3356 90.3173 17.3273C90.3173 14.3751 92.0206 12.7308 94.3042 12.7308C95.3898 12.7308 96.3819 13.1792 97.1119 14.1135V12.955H99.489V21.382C99.489 24.8014 96.8311 25.6422 94.6037 25.6422ZM97.1114 18.7872C96.6996 19.3664 95.8385 19.8149 95.0711 19.8149C93.7047 19.8149 92.7688 18.8806 92.7688 17.3297C92.7688 15.7789 93.7047 14.8446 95.0711 14.8446C95.8385 14.8446 96.6996 15.2744 97.1114 15.8536V18.7872ZM110.43 21.9799V15.6083C110.43 13.8519 109.476 12.7308 107.473 12.7308C106.013 12.7308 104.89 13.4408 104.31 14.1135V12.955H101.932V21.9799H104.31V15.8886C104.721 15.3654 105.433 14.8422 106.369 14.8422C107.379 14.8422 108.034 15.272 108.034 16.5239V21.9799H110.43ZM118.285 21.9799H120.681V16.1502C120.681 13.5529 118.79 12.7308 116.713 12.7308C115.29 12.7308 113.867 13.1606 112.763 14.1509L113.699 15.8138C114.448 15.1225 115.346 14.7488 116.301 14.7488C117.499 14.7488 118.285 15.3467 118.285 16.2623V17.4021C117.686 16.692 116.638 16.2997 115.421 16.2997C113.98 16.2997 112.295 17.0844 112.295 19.2145C112.295 21.2325 113.98 22.2042 115.421 22.2042C116.6 22.2042 117.667 21.7744 118.285 21.027V21.9799ZM116.376 20.598C117.143 20.598 117.892 20.3364 118.285 19.8132V18.6921C117.892 18.1689 117.143 17.8886 116.376 17.8886C115.44 17.8886 114.673 18.3931 114.673 19.2526C114.673 20.1122 115.44 20.598 116.376 20.598ZM125.484 9.51599V21.979H123.107V9.51599H125.484Z" fill="white" fill-opacity="0.8"/>
<path fill-rule="evenodd" clip-rule="evenodd" d="M44.4973 22.2075C40.8099 22.2075 38.3018 19.4422 38.3018 15.7612C38.3018 12.0802 40.8099 9.31482 44.4973 9.31482C48.1848 9.31482 50.7117 12.0802 50.7117 15.7612C50.7117 19.4422 48.1848 22.2075 44.4973 22.2075ZM44.4947 20.8223C47.2837 20.8223 49.0993 18.6548 49.0993 15.7586C49.0993 12.8437 47.2837 10.6949 44.4947 10.6949C41.6871 10.6949 39.9089 12.8437 39.9089 15.7586C39.9089 18.6548 41.6871 20.8223 44.4947 20.8223ZM60.6863 15.6454V21.9797H59.3012V16.0752C59.3012 14.4683 58.4776 13.9824 57.261 13.9824C56.1566 13.9824 55.1272 14.6551 54.5843 15.3838V21.9797H53.1805V12.9548H54.5843V14.2627C55.2207 13.4966 56.4561 12.7305 57.8225 12.7305C59.6943 12.7305 60.6863 13.6835 60.6863 15.6454ZM67.7165 22.2039C65.0211 22.2039 63.0932 20.2793 63.0932 17.4579C63.0932 14.842 64.965 12.7305 67.548 12.7305C70.2808 12.7305 71.8905 14.8606 71.8905 17.57V17.925H64.5906C64.7029 19.6253 65.8821 21.0454 67.8288 21.0454C68.877 21.0454 69.9065 20.6343 70.6364 19.8869L71.3103 20.8025C70.3931 21.6994 69.1765 22.2039 67.7165 22.2039ZM67.529 13.8886C69.588 13.8886 70.4865 15.5515 70.5052 16.8782H64.5716C64.6465 15.5142 65.6011 13.8886 67.529 13.8886Z" fill="white" fill-opacity="0.8"/>
<path fill-rule="evenodd" clip-rule="evenodd" d="M1.17847 15.063C1.17847 7.33587 7.55918 1.07141 15.4297 1.07141C23.3003 1.07141 29.681 7.33587 29.681 15.063C29.681 19.976 27.0973 24.2891 23.1955 26.7849H23.194C21.47 25.6815 19.4879 24.9426 17.3556 24.659V24.6499V23.548V22.7675V19.6008V18.7636V14.6849H16.5852H14.2742H13.5039V16.1975H14.2742V19.0616V19.8421V22.9134V23.6781V24.5652V24.5743C14.0146 24.5947 13.7596 24.6249 13.5039 24.659V24.6507C13.2759 24.6817 13.0502 24.7202 12.8252 24.7611C12.6134 24.7996 12.4046 24.8443 12.1966 24.8919C11.9909 24.9388 11.7876 24.991 11.5857 25.0462C11.3169 25.1203 11.0519 25.2012 10.7908 25.2897C10.6036 25.3533 10.4187 25.4191 10.2353 25.4894C10.0096 25.5764 9.78777 25.6671 9.56822 25.7647C9.34791 25.8623 9.13067 25.9651 8.91652 26.0733C8.73703 26.164 8.56062 26.257 8.38575 26.3546C8.14156 26.4923 7.89967 26.6344 7.66395 26.7857C3.76218 24.2891 1.17847 19.976 1.17847 15.063ZM18.1271 23.3402V22.534C21.2632 21.4411 23.5195 18.5097 23.5195 15.0609C23.5195 10.6819 19.8912 7.11974 15.4309 7.11974C10.9707 7.11974 7.34239 10.6819 7.34239 15.0609C7.34239 18.7872 9.97386 21.9115 13.5051 22.7624V23.5413C9.54016 22.6776 6.57205 19.2138 6.57205 15.0609C6.57205 10.2576 10.5385 6.36344 15.4309 6.36344C20.3234 6.36344 24.2898 10.2576 24.2898 15.0609C24.2898 18.94 21.7 22.2201 18.1271 23.3402ZM19.6647 15.063C19.6647 12.7692 17.7643 10.9034 15.4279 10.9034C13.0914 10.9034 11.191 12.7692 11.191 15.063C11.191 16.6739 12.1347 18.0633 13.502 18.753V19.594C11.694 18.8536 10.4207 17.1065 10.4207 15.063C10.4207 12.3479 12.6623 10.1471 15.4279 10.1471C18.1934 10.1471 20.4351 12.3479 20.4351 15.063C20.4351 16.801 19.5107 18.3212 18.1241 19.1947V18.2539C19.0608 17.4907 19.6647 16.3487 19.6647 15.063Z" fill="white" fill-opacity="0.8"/>
</svg>
