<svg width="55" height="38" viewBox="0 0 55 38" fill="none" xmlns="http://www.w3.org/2000/svg">
<g opacity="0.8" clip-path="url(#clip0_1353_188)">
<path d="M23.4074 4.1443C25.1523 2.32052 27.5816 1.18948 30.2681 1.18948C33.8404 1.18948 36.9564 3.18736 38.6152 6.15436C40.0579 5.50788 41.6536 5.14873 43.3329 5.14873C49.775 5.14873 54.9987 10.435 54.9987 16.9546C54.9987 23.4742 49.7762 28.7618 43.3329 28.7618C42.5466 28.7618 41.7785 28.6814 41.0347 28.5317C39.5738 31.1468 36.789 32.9134 33.5916 32.9134C32.2544 32.9134 30.9888 32.6041 29.8616 32.0514C28.3812 35.548 24.929 38 20.9065 38C16.8841 38 13.1467 35.341 11.7768 31.6107C11.1786 31.7373 10.5573 31.8042 9.92027 31.8042C4.93434 31.8042 0.891235 27.705 0.891235 22.6488C0.891235 19.2593 2.70651 16.3008 5.40636 14.7181C4.85062 13.4349 4.54241 12.019 4.54241 10.53C4.54241 4.7153 9.24804 0 15.0506 0C18.4579 0 21.4866 1.62534 23.4074 4.1443Z" fill="white"/>
<path d="M8.7275 19.7048C8.69352 19.7937 8.73963 19.8119 8.75055 19.8278C8.85248 19.902 8.9544 19.9556 9.05876 20.0152C9.61086 20.3087 10.1326 20.3939 10.6775 20.3939C11.7877 20.3939 12.477 19.8022 12.477 18.8489V18.8306C12.477 17.9492 11.6979 17.6278 10.9687 17.3964L10.8728 17.366C10.3219 17.187 9.84748 17.0312 9.84748 16.6684V16.6501C9.84748 16.3385 10.1254 16.1096 10.5549 16.1096C11.033 16.1096 11.5997 16.2691 11.9649 16.4724C11.9649 16.4724 12.0729 16.5418 12.1117 16.4371C12.1336 16.3799 12.318 15.8819 12.3374 15.8271C12.358 15.7687 12.3216 15.7248 12.2828 15.7017C11.8654 15.4473 11.289 15.2732 10.692 15.2732H10.5816C9.56475 15.2732 8.85612 15.8904 8.85612 16.7719V16.7901C8.85612 17.7191 9.63877 18.0222 10.3717 18.2316L10.4894 18.2682C11.0233 18.4325 11.4844 18.575 11.4844 18.9512V18.9707C11.4844 19.3152 11.1847 19.5721 10.7029 19.5721C10.5149 19.5721 9.91786 19.5684 9.27353 19.1594C9.19588 19.1131 9.15098 19.0802 9.09031 19.0437C9.05876 19.0242 8.97867 18.9889 8.94348 19.0936L8.72507 19.7036L8.7275 19.7048Z" fill="black"/>
<path d="M24.9764 19.7048C24.9424 19.7937 24.9885 19.8119 24.9995 19.8278C25.1014 19.902 25.2033 19.9556 25.3077 20.0152C25.8598 20.3087 26.3815 20.3939 26.9264 20.3939C28.0366 20.3939 28.7259 19.8022 28.7259 18.8489V18.8306C28.7259 17.9492 27.9468 17.6278 27.2176 17.3964L27.1217 17.366C26.5708 17.187 26.0964 17.0312 26.0964 16.6684V16.6501C26.0964 16.3385 26.3743 16.1096 26.8038 16.1096C27.2819 16.1096 27.8486 16.2691 28.2138 16.4724C28.2138 16.4724 28.3218 16.5418 28.3606 16.4371C28.3825 16.3799 28.5669 15.8819 28.5863 15.8271C28.6069 15.7687 28.5705 15.7248 28.5317 15.7017C28.1143 15.4473 27.5379 15.2732 26.9409 15.2732H26.8305C25.8137 15.2732 25.105 15.8904 25.105 16.7719V16.7901C25.105 17.7191 25.8889 18.0222 26.6206 18.2316L26.7383 18.2682C27.2722 18.4325 27.7345 18.575 27.7345 18.9512V18.9707C27.7345 19.3152 27.4348 19.5721 26.9518 19.5721C26.7638 19.5721 26.168 19.5684 25.5224 19.1594C25.4448 19.1131 25.3987 19.0814 25.3392 19.0437C25.3198 19.0315 25.2251 18.9938 25.1936 19.0936L24.974 19.7036L24.9764 19.7048Z" fill="black"/>
<path d="M36.9953 16.8389C36.9042 16.5297 36.7623 16.2582 36.5742 16.0317C36.3861 15.8041 36.1459 15.6214 35.8619 15.4887C35.5792 15.356 35.2443 15.2891 34.8693 15.2891C34.4944 15.2891 34.1583 15.3572 33.8756 15.4887C33.5928 15.6202 33.3526 15.8041 33.1645 16.0317C32.9752 16.2582 32.8332 16.5309 32.7434 16.8389C32.6524 17.1457 32.6063 17.4817 32.6063 17.8372C32.6063 18.1928 32.6524 18.53 32.7434 18.8368C32.8344 19.1448 32.9752 19.4163 33.1645 19.644C33.3526 19.8717 33.5928 20.0531 33.8768 20.1821C34.1607 20.3112 34.4944 20.3769 34.8706 20.3769C35.2467 20.3769 35.5792 20.3112 35.8631 20.1821C36.1459 20.0531 36.3861 19.8704 36.5754 19.644C36.7635 19.4175 36.9067 19.1448 36.9965 18.8368C37.0875 18.53 37.1336 18.194 37.1336 17.8372C37.1336 17.4805 37.0875 17.1457 36.9965 16.8389M36.0706 17.8372C36.0706 18.3754 35.9699 18.8015 35.7733 19.101C35.578 19.3981 35.2831 19.5429 34.8718 19.5429C34.4604 19.5429 34.1668 19.3981 33.9738 19.101C33.7785 18.8015 33.6802 18.3754 33.6802 17.8372C33.6802 17.2991 33.7785 16.8754 33.9726 16.5784C34.1656 16.285 34.4592 16.1413 34.8718 16.1413C35.2843 16.1413 35.578 16.2837 35.7733 16.5784C35.9711 16.8754 36.0706 17.2991 36.0706 17.8372Z" fill="black"/>
<path fill-rule="evenodd" clip-rule="evenodd" d="M44.6033 19.3992C44.573 19.3091 44.4844 19.3432 44.4844 19.3432C44.3497 19.3955 44.2065 19.4418 44.0536 19.4661C43.8995 19.4905 43.7297 19.5027 43.5464 19.5027C43.0987 19.5027 42.7419 19.3687 42.4859 19.1045C42.2311 18.8391 42.0867 18.4118 42.0879 17.8335C42.0891 17.3075 42.2165 16.9119 42.4434 16.6099C42.6691 16.3104 43.0137 16.1558 43.4712 16.1558C43.8534 16.1558 44.1446 16.2009 44.4504 16.2958C44.4504 16.2958 44.5232 16.3275 44.5572 16.2325C44.6397 16.0061 44.6992 15.8453 44.7853 15.597C44.8096 15.5264 44.7501 15.4959 44.7271 15.4874C44.607 15.4399 44.3242 15.3632 44.1095 15.3304C43.9105 15.2999 43.6751 15.2841 43.4142 15.2841C43.0259 15.2841 42.6788 15.351 42.3816 15.4838C42.0855 15.6152 41.8343 15.7979 41.6353 16.0255C41.4363 16.2532 41.2858 16.5247 41.1851 16.8327C41.0844 17.1395 41.0334 17.4768 41.0334 17.8335C41.0334 18.6042 41.2397 19.2275 41.6499 19.6828C42.06 20.1418 42.6752 20.3744 43.4785 20.3744C43.9529 20.3744 44.4395 20.2782 44.7902 20.1394C44.7902 20.1394 44.8569 20.1065 44.8278 20.0286L44.6009 19.398L44.6033 19.3992Z" fill="black"/>
<path fill-rule="evenodd" clip-rule="evenodd" d="M49.343 16.6636C49.2641 16.3653 49.07 16.0646 48.9426 15.927C48.7411 15.7079 48.5421 15.5557 48.3468 15.4717C48.0919 15.3621 47.785 15.2891 47.4476 15.2891C47.0569 15.2891 46.7014 15.3548 46.4126 15.4912C46.1238 15.6263 45.8811 15.8126 45.6906 16.0439C45.5001 16.274 45.3569 16.5492 45.2659 16.8608C45.1749 17.1701 45.1288 17.5073 45.1288 17.864C45.1288 18.2208 45.1761 18.5653 45.2708 18.8685C45.3666 19.1753 45.5183 19.4443 45.7246 19.6683C45.9309 19.8936 46.1966 20.0689 46.5133 20.1931C46.8288 20.3148 47.2122 20.3793 47.6515 20.3769C48.5567 20.3745 49.0348 20.1724 49.2313 20.0628C49.2665 20.0433 49.2993 20.0092 49.258 19.9118L49.0518 19.336C49.0202 19.2507 48.9341 19.2812 48.9341 19.2812C48.7096 19.3652 48.3904 19.5149 47.6466 19.5137C47.16 19.5137 46.7997 19.3688 46.574 19.1436C46.3422 18.9135 46.2281 18.575 46.2087 18.0978L49.3442 18.1002C49.3442 18.1002 49.4267 18.1002 49.4352 18.0174C49.4388 17.9833 49.542 17.371 49.3418 16.6624M46.2233 17.3198C46.2682 17.0203 46.3495 16.772 46.4769 16.5784C46.6686 16.2837 46.961 16.1206 47.3736 16.1206C47.7862 16.1206 48.0568 16.2837 48.2521 16.5784C48.382 16.7732 48.4378 17.0313 48.4608 17.321H46.2233V17.3198Z" fill="black"/>
<path fill-rule="evenodd" clip-rule="evenodd" d="M24.2265 16.6636C24.1477 16.3653 23.9535 16.0646 23.8261 15.927C23.6247 15.7079 23.4269 15.5557 23.2303 15.4717C22.9743 15.3621 22.6685 15.2891 22.3324 15.2891C21.9404 15.2891 21.5849 15.3548 21.2961 15.4912C21.0073 15.6263 20.7646 15.8126 20.5741 16.0439C20.3836 16.274 20.2405 16.5492 20.1494 16.8608C20.0584 17.1701 20.0123 17.5073 20.0123 17.864C20.0123 18.2208 20.0597 18.5653 20.1543 18.8685C20.2502 19.1753 20.4018 19.4443 20.6081 19.6683C20.8144 19.8936 21.0801 20.0689 21.3968 20.1931C21.7123 20.3148 22.0958 20.3793 22.535 20.3769C23.4402 20.3745 23.9183 20.1724 24.1149 20.0628C24.1501 20.0433 24.1828 20.0092 24.1416 19.9118L23.9353 19.336C23.9038 19.2507 23.8176 19.2812 23.8176 19.2812C23.5931 19.3652 23.274 19.5149 22.5302 19.5137C22.0448 19.5137 21.6832 19.3688 21.4575 19.1436C21.2257 18.9135 21.1117 18.575 21.0923 18.0978L24.2277 18.1002C24.2277 18.1002 24.3103 18.1002 24.3187 18.0174C24.3224 17.9833 24.4255 17.371 24.2253 16.6624M21.1068 17.3198C21.1517 17.0203 21.233 16.772 21.3592 16.5784C21.5522 16.2837 21.8446 16.1206 22.2559 16.1206C22.6673 16.1206 22.9403 16.2837 23.1357 16.5784C23.2643 16.7732 23.3213 17.0313 23.3432 17.321H21.1056L21.1068 17.3198Z" fill="black"/>
<path d="M15.5761 17.1714C15.4487 17.1617 15.2836 17.1568 15.0871 17.1568C14.8177 17.1568 14.558 17.1909 14.3141 17.2566C14.069 17.3224 13.8494 17.4247 13.6601 17.561C13.4696 17.6986 13.3167 17.8727 13.205 18.0809C13.0934 18.2891 13.0376 18.5326 13.0376 18.8053C13.0376 19.078 13.0849 19.3264 13.182 19.5236C13.2779 19.722 13.415 19.8888 13.5909 20.0155C13.7656 20.1433 13.9804 20.237 14.2292 20.293C14.4755 20.3503 14.7546 20.3783 15.0604 20.3783C15.3819 20.3783 15.7023 20.3515 16.0129 20.2979C16.3211 20.2456 16.6973 20.1689 16.8028 20.1445C16.9072 20.1202 17.0225 20.0885 17.0225 20.0885C17.1001 20.069 17.0941 19.985 17.0941 19.985V17.1081C17.0928 16.4762 16.9242 16.0087 16.5941 15.7178C16.2653 15.4292 15.7799 15.2831 15.1526 15.2831C14.9172 15.2831 14.5398 15.3148 14.3117 15.361C14.3117 15.361 13.6273 15.4937 13.3458 15.7165C13.3458 15.7165 13.2839 15.7543 13.3167 15.8419L13.5387 16.4409C13.5666 16.5189 13.6419 16.4921 13.6419 16.4921C13.6419 16.4921 13.6661 16.4823 13.6941 16.4653C14.2971 16.1366 15.0604 16.1463 15.0604 16.1463C15.3989 16.1463 15.6598 16.2157 15.8357 16.3496C16.0068 16.4823 16.093 16.6796 16.093 17.0996V17.2323C15.8236 17.1933 15.5761 17.1714 15.5761 17.1714ZM14.3287 19.3824C14.2049 19.2838 14.1891 19.2594 14.1479 19.1961C14.0848 19.0999 14.0532 18.9623 14.0532 18.787C14.0532 18.5107 14.1442 18.311 14.3335 18.1783C14.3323 18.1783 14.6041 17.9421 15.2436 17.9506C15.6926 17.9567 16.0954 18.0237 16.0954 18.0237V19.4542C16.0954 19.4542 15.6974 19.5394 15.2484 19.5662C14.6102 19.6052 14.3262 19.3824 14.3287 19.3824Z" fill="black"/>
<path fill-rule="evenodd" clip-rule="evenodd" d="M40.8721 15.5498C40.8964 15.4792 40.8454 15.4451 40.8248 15.4365C40.7714 15.4171 40.5045 15.3598 40.2994 15.3465C39.905 15.3221 39.6866 15.3891 39.4901 15.4767C39.2947 15.5644 39.0799 15.7068 38.961 15.8688V15.4852C38.961 15.4329 38.9234 15.3903 38.87 15.3903H38.0655C38.0133 15.3903 37.9757 15.4329 37.9757 15.4852V20.1798C37.9757 20.2322 38.0182 20.2748 38.0716 20.2748H38.8955C38.9477 20.2748 38.9901 20.2322 38.9901 20.1798V17.835C38.9901 17.5197 39.0253 17.2068 39.0945 17.0095C39.1624 16.8135 39.2547 16.6589 39.3687 16.5469C39.4828 16.4349 39.6138 16.357 39.757 16.3131C39.9026 16.2681 40.064 16.2535 40.1768 16.2535C40.3419 16.2535 40.5215 16.2961 40.5215 16.2961C40.5821 16.3022 40.6161 16.2644 40.6367 16.2109C40.6901 16.0672 40.843 15.6362 40.8721 15.5498Z" fill="black"/>
<path fill-rule="evenodd" clip-rule="evenodd" d="M33.1378 13.3741C33.0371 13.3424 32.9473 13.3217 32.8272 13.301C32.7058 13.2791 32.5627 13.2669 32.4013 13.2669C31.8346 13.2669 31.3869 13.4276 31.0738 13.7454C30.7619 14.0607 30.5496 14.5404 30.4428 15.1723L30.4052 15.3854H29.6929C29.6929 15.3854 29.6056 15.3817 29.5874 15.4767L29.4709 16.1305C29.4624 16.1925 29.4891 16.2315 29.5728 16.2315H30.2657L29.5619 20.1701C29.5073 20.4866 29.4442 20.7471 29.3738 20.9456C29.3058 21.1416 29.2379 21.2865 29.1554 21.3936C29.0753 21.4959 29.0001 21.5726 28.8678 21.6164C28.7598 21.6517 28.6348 21.6688 28.4989 21.6688C28.4237 21.6688 28.323 21.6566 28.2477 21.6408C28.1725 21.6262 28.1337 21.6091 28.0779 21.586C28.0779 21.586 27.9966 21.5543 27.9638 21.6359C27.9383 21.7029 27.7539 22.213 27.732 22.2763C27.7102 22.3384 27.7405 22.3871 27.7806 22.4017C27.8728 22.4346 27.9407 22.4565 28.0669 22.4857C28.2417 22.5271 28.3885 22.5295 28.5268 22.5295C28.8156 22.5295 29.0789 22.4894 29.2961 22.4102C29.5158 22.3299 29.7063 22.1911 29.8761 22.0048C30.0582 21.8027 30.1734 21.5896 30.2839 21.2999C30.3931 21.0138 30.4853 20.657 30.5593 20.2431L31.2655 16.2315H32.2981C32.2981 16.2315 32.3855 16.2352 32.4037 16.1402L32.5202 15.4864C32.5287 15.4243 32.502 15.3854 32.4183 15.3854H31.416C31.4208 15.3634 31.4657 15.0092 31.581 14.6756C31.6307 14.5331 31.723 14.4187 31.8018 14.3395C31.8783 14.2616 31.9669 14.2068 32.0639 14.1752C32.1634 14.1435 32.2763 14.1277 32.4001 14.1277C32.4947 14.1277 32.5869 14.1387 32.6573 14.1533C32.7544 14.174 32.792 14.1849 32.8175 14.1922C32.9194 14.2239 32.9327 14.1934 32.9534 14.1447L33.1924 13.4836C33.2167 13.413 33.1572 13.3826 33.1354 13.3741" fill="black"/>
<path fill-rule="evenodd" clip-rule="evenodd" d="M19.1265 20.1799C19.1265 20.2323 19.0889 20.2761 19.0367 20.2761H18.2043C18.1521 20.2761 18.1145 20.2335 18.1145 20.1799V13.4643C18.1145 13.4119 18.1521 13.3693 18.2043 13.3693H19.0367C19.0889 13.3693 19.1265 13.4119 19.1265 13.4643V20.1799Z" fill="black"/>
</g>
<defs>
<clipPath id="clip0_1353_188">
<rect width="54.1087" height="38" fill="white" transform="translate(0.891235)"/>
</clipPath>
</defs>
</svg>
