<svg width="107" height="28" viewBox="0 0 107 28" fill="none" xmlns="http://www.w3.org/2000/svg">
<mask id="mask0_1675_1292" style="mask-type:alpha" maskUnits="userSpaceOnUse" x="0" y="2" width="27" height="26">
<path d="M0.517456 2H26.5174V28H0.517456V2Z" fill="white"/>
</mask>
<g mask="url(#mask0_1675_1292)">
<path fill-rule="evenodd" clip-rule="evenodd" d="M7.87121 3.28209C11.3194 1.59498 15.5031 1.58321 18.9844 3.18599C16.2926 2.96183 13.6021 3.8556 11.3612 5.31302C9.03268 6.81537 7.31924 9.22519 6.62125 11.9053C6.12779 13.8154 6.21195 15.8977 7.00058 17.717C8.08653 20.314 10.7291 22.2454 13.5721 22.2529C15.194 22.2699 16.8297 21.7308 18.0797 20.6854C19.5725 19.4533 20.5221 17.5784 20.6201 15.6414C20.6904 14.0696 20.3058 12.4231 19.2978 11.1857C18.2022 9.81672 16.5346 9.05341 14.8669 8.64761C14.7008 6.13087 16.6518 3.73907 19.0942 3.24798C21.8881 4.57206 24.1803 6.92421 25.4185 9.76242C26.628 12.4882 26.8464 15.6361 26.0376 18.5062C25.3118 21.1222 23.737 23.4936 21.6099 25.1764C19.352 26.9884 16.4727 28.0038 13.5786 27.9994C11.0329 28.0251 8.48815 27.2693 6.36661 25.8609C3.77175 24.1598 1.81853 21.4992 0.994893 18.5019C0.231924 15.7812 0.38634 12.8087 1.43704 10.185C2.62106 7.18586 4.96847 4.67441 7.87121 3.28209Z" fill="white" fill-opacity="0.8"/>
</g>
<path fill-rule="evenodd" clip-rule="evenodd" d="M72.3174 8.36402C72.7321 7.63463 73.5187 7.1993 74.3194 7.10186C75.2461 6.98177 76.2024 7.09423 77.073 7.4508C76.9957 8.14747 76.8917 8.84094 76.8027 9.5376C76.143 9.27724 75.3203 9.07373 74.683 9.48715C74.1889 9.83167 74.2259 10.5064 74.244 11.0478C74.9173 11.0434 75.5918 11.0466 76.267 11.0446C76.267 11.7226 76.267 12.4005 76.2661 13.0775C75.5937 13.0765 74.9226 13.0797 74.2514 13.0743C74.2483 15.6422 74.2505 18.2089 74.2505 20.7758C73.4445 20.7768 72.6388 20.7736 71.8338 20.7778C71.8307 18.2089 71.8359 15.641 71.8307 13.0731C71.412 13.0797 70.993 13.0775 70.5743 13.0775C70.5721 12.3996 70.5731 11.7226 70.5743 11.0446C70.993 11.0456 71.4129 11.0446 71.8328 11.0478C71.8095 10.1358 71.8319 9.16355 72.3174 8.36402Z" fill="white" fill-opacity="0.8"/>
<path fill-rule="evenodd" clip-rule="evenodd" d="M55.4676 13.3757C54.7568 13.7757 54.3685 14.5476 54.2495 15.306C54.1684 16.052 54.2247 16.8302 54.5448 17.5231C54.7851 18.0468 55.2371 18.505 55.8204 18.6691C56.6057 18.8905 57.4896 18.5683 57.9852 17.9554C57.9721 16.423 57.984 14.8905 57.9787 13.3579C57.1846 13.0682 56.2335 12.9506 55.4676 13.3757ZM57.9809 7.77783C58.8073 7.78298 59.635 7.78087 60.4615 7.77994V20.5704C59.7032 20.5693 58.9458 20.565 58.1885 20.5735C58.1464 20.3355 58.1116 20.0966 58.088 19.8567C56.9509 21.0836 54.8435 21.0286 53.5732 20.025C52.3161 19.0576 51.7871 17.4453 51.7959 15.9418C51.7633 14.3449 52.4493 12.6381 53.8936 11.7539C55.0857 10.9881 56.6425 10.9507 57.9809 11.356C57.9796 10.1633 57.9787 8.97057 57.9809 7.77783Z" fill="white" fill-opacity="0.8"/>
<path fill-rule="evenodd" clip-rule="evenodd" d="M45.0302 12.8433C44.2906 13.0822 43.7918 13.768 43.6026 14.4887C43.3626 15.3973 43.3815 16.3915 43.7381 17.2686C43.9724 17.8611 44.4556 18.3952 45.0973 18.5569C45.7952 18.7643 46.6063 18.5613 47.094 18.0208C47.7478 17.3238 47.9073 16.3188 47.8587 15.4026C47.8213 14.593 47.5682 13.7301 46.9166 13.1919C46.4082 12.75 45.6642 12.6631 45.0302 12.8433ZM44.383 10.8116C45.63 10.538 47.0268 10.6216 48.122 11.3227C49.2623 12.0151 49.9931 13.2373 50.2408 14.518C50.5102 15.9541 50.2935 17.5072 49.4933 18.7523C48.8846 19.7182 47.8743 20.4434 46.7383 20.6702C45.5993 20.8905 44.3511 20.7907 43.3374 20.1981C42.371 19.6586 41.6699 18.7274 41.3122 17.7006C40.7661 16.1971 40.8565 14.4704 41.5973 13.0453C42.1498 11.9555 43.1811 11.1088 44.383 10.8116Z" fill="white" fill-opacity="0.8"/>
<path fill-rule="evenodd" clip-rule="evenodd" d="M64.2328 16.5181C63.7368 16.8037 63.4981 17.4539 63.6731 17.9967C63.8266 18.432 64.2965 18.6535 64.731 18.6752C65.4388 18.7566 66.1281 18.4515 66.6598 17.9989C66.6543 17.3411 66.6586 16.6842 66.6564 16.0264C65.8407 16.1144 64.9751 16.1241 64.2328 16.5181ZM61.8871 11.8329C63.2173 10.8559 64.9623 10.4565 66.5808 10.7735C67.4063 10.9299 68.1821 11.4238 68.6037 12.1651C69.0898 12.9685 69.1481 13.939 69.1245 14.8552C69.1233 16.757 69.1255 18.6577 69.1233 20.5597C68.3669 20.5563 67.6105 20.5563 66.8541 20.5597C66.8293 20.3196 66.7979 20.082 66.7571 19.8453C65.5057 21.1164 63.216 21.0786 61.9906 19.7901C61.2829 19.0399 61.0171 17.9141 61.2894 16.9209C61.5099 16.0687 62.1927 15.4141 62.9663 15.0462C64.1108 14.5 65.3933 14.3884 66.6382 14.2917C66.6674 13.7467 66.5354 13.076 65.9725 12.8478C64.8553 12.3671 63.6104 12.9033 62.7006 13.585C62.4348 12.9978 62.155 12.4179 61.8871 11.8329Z" fill="white" fill-opacity="0.8"/>
<path fill-rule="evenodd" clip-rule="evenodd" d="M81.1993 12.8235C80.5466 13.0167 80.0466 13.5638 79.8159 14.1846C79.473 15.1159 79.4621 16.1635 79.785 17.1011C79.9445 17.5419 80.1905 17.9718 80.5807 18.2529C81.318 18.8117 82.4663 18.7553 83.1245 18.0966C83.7827 17.4594 83.9795 16.502 83.985 15.6227C83.9553 14.7305 83.7268 13.7462 82.9851 13.1632C82.4982 12.752 81.8037 12.6792 81.1993 12.8235ZM80.5533 10.7981C81.773 10.544 83.129 10.6298 84.2013 11.3073C85.3608 11.9975 86.1057 13.2424 86.3409 14.5417C86.6309 15.8985 86.3916 17.3585 85.7079 18.5665C85.1333 19.5911 84.1212 20.3726 82.9653 20.645C81.728 20.9131 80.351 20.7971 79.2764 20.0937C78.1961 19.4186 77.505 18.2561 77.2335 17.0415C76.8743 15.5653 77.1215 13.9436 77.9402 12.6543C78.5225 11.7327 79.4819 11.0489 80.5533 10.7981Z" fill="white" fill-opacity="0.8"/>
<path fill-rule="evenodd" clip-rule="evenodd" d="M89.5744 11.6074C90.5834 10.8382 91.9492 10.5015 93.2236 10.7446C94.0487 10.8681 94.8169 11.3377 95.234 12.0274C95.7782 12.9069 95.8717 13.956 95.8477 14.9536C95.8467 16.6526 95.8477 18.3527 95.8477 20.0526C95.0163 20.0556 94.1846 20.0505 93.3532 20.0556C93.351 18.3546 93.35 16.6538 93.3544 14.9527C93.3532 14.3276 93.2761 13.643 92.8296 13.1476C92.5294 12.8029 92.0484 12.6277 91.5814 12.6535C90.8249 12.6268 90.2014 13.1034 89.6702 13.5554C89.6724 15.7219 89.6702 17.8882 89.6714 20.0556C88.8419 20.0526 88.0137 20.0526 87.1844 20.0547C87.1844 17.0006 87.1844 13.9458 87.1854 10.8917C87.9429 10.8938 88.7004 10.8949 89.4578 10.8908C89.5005 11.1285 89.5374 11.3676 89.5744 11.6074Z" fill="white" fill-opacity="0.8"/>
<path fill-rule="evenodd" clip-rule="evenodd" d="M100.521 13.1165C100.076 13.4679 99.8785 14.0286 99.8044 14.575C101.026 14.5762 102.248 14.5762 103.47 14.575C103.399 13.8788 103.085 13.1272 102.416 12.8268C101.8 12.4908 101.036 12.6794 100.521 13.1165ZM98.5713 12.0211C100.083 10.3381 103.019 10.1809 104.635 11.7902C105.775 12.9949 106.006 14.7638 105.955 16.3634C103.893 16.3536 101.83 16.36 99.7692 16.36C99.767 17.2038 100.193 18.0886 101.002 18.4085C102.293 18.9139 103.809 18.5974 104.92 17.8036C105.113 18.4847 105.369 19.145 105.552 19.8292C104.539 20.4951 103.315 20.7272 102.125 20.776C100.863 20.8075 99.5204 20.4397 98.6323 19.4876C97.5621 18.3978 97.2027 16.7853 97.3142 15.2929C97.355 14.1055 97.7626 12.8995 98.5713 12.0211Z" fill="white" fill-opacity="0.8"/>
<path fill-rule="evenodd" clip-rule="evenodd" d="M30.8505 10.6677C31.7338 10.6677 32.6162 10.6686 33.4987 10.6667C34.2698 12.5921 35.054 14.5134 35.8261 16.44C35.8834 16.5803 35.9524 16.7163 36.0236 16.8504C36.8261 14.7898 37.6298 12.7281 38.4407 10.6698C39.2811 10.6646 40.1214 10.6708 40.9616 10.6667C39.6548 13.7929 38.3501 16.919 37.0497 20.0483C36.3325 20.063 35.6144 20.0492 34.8963 20.0556C33.5385 16.9304 32.2114 13.7917 30.8505 10.6677Z" fill="white" fill-opacity="0.8"/>
</svg>
