<svg width="92" height="14" viewBox="0 0 92 14" fill="none" xmlns="http://www.w3.org/2000/svg">
<g opacity="0.8">
<path d="M39.5318 13.0351L35.5381 1.81143C35.4692 1.67372 35.4004 1.46715 35.4004 1.26058C35.4004 0.778578 35.8135 0.296579 36.4332 0.296579C36.9152 0.296579 37.2595 0.640864 37.4661 1.12286L40.7712 10.7628L44.1452 1.05401C44.2829 0.572007 44.6274 0.227722 45.1092 0.227722H45.2469C45.7976 0.227722 46.1421 0.572007 46.2798 1.05401L49.5849 10.7628L52.9589 1.05401C53.0966 0.640864 53.3721 0.296579 53.9229 0.296579C54.4738 0.296579 54.8869 0.709721 54.8869 1.19172C54.8869 1.39829 54.8178 1.60486 54.7492 1.74258L50.6866 12.966C50.4801 13.586 50.0669 13.8614 49.5849 13.8614H49.5161C49.0341 13.8614 48.6207 13.586 48.4144 12.966L45.1092 3.46377L41.8041 12.966C41.5975 13.586 41.2532 13.8614 40.7024 13.8614H40.6335C40.1515 13.9303 39.7384 13.586 39.5318 13.0351Z" fill="white"/>
<path d="M68.8648 1.33C68.8648 0.779148 69.278 0.29715 69.8286 0.29715C70.3795 0.29715 70.8617 0.710291 70.8617 1.33V3.60228C71.8255 1.39886 74.0289 0.366007 75.406 0.366007C76.0257 0.366007 76.37 0.779148 76.37 1.39886C76.37 1.94972 76.0257 2.294 75.4749 2.43172C72.9272 2.70714 70.7924 4.63514 70.7924 8.49113V12.9668C70.7924 13.5177 70.3792 13.9999 69.8284 13.9999C69.2778 13.9999 68.7955 13.5868 68.7955 12.9668V1.33" fill="white"/>
<path d="M82.5673 0.29715C86.4231 0.29715 88.6267 3.46432 88.6268 6.97586C88.6268 7.52656 88.2141 7.87117 87.7323 7.87137H78.2987C78.5741 10.6945 80.5709 12.347 82.912 12.347C84.4957 12.3469 85.7349 11.7272 86.6298 10.8323C86.7674 10.6947 86.9741 10.6263 87.1805 10.6263C87.6628 10.6263 88.0067 11.0393 88.0067 11.4524C88.0067 11.659 87.9378 11.9339 87.7313 12.0716C86.4233 13.2419 84.9776 13.9993 82.7743 13.9993C79.1937 13.9993 76.3017 11.2454 76.3016 7.18289V7.11356C76.3018 3.32675 78.9182 0.297348 82.5673 0.29715ZM82.4999 1.95047C80.2274 1.95049 78.5063 3.87836 78.2997 6.42606H86.6307C86.4242 4.01606 85.0474 1.95047 82.4999 1.95047Z" fill="white"/>
<path d="M60.8079 0.365509C62.6672 0.365509 64.1132 0.847801 65.0774 1.8118C65.9724 2.7069 66.4543 4.01485 66.4543 5.66727V12.9661C66.4543 13.517 66.0411 13.93 65.4905 13.93C64.9398 13.9299 64.5267 13.5173 64.5266 13.0354V11.7268C63.6312 12.9663 62.0474 13.9993 59.7063 13.9993C57.3653 13.9991 54.8177 12.622 54.8176 9.9368C54.8176 7.11367 57.0901 5.59891 60.4641 5.59891C62.1853 5.59891 63.356 5.80541 64.5266 6.14969V5.66727C64.5265 3.25743 63.0806 2.08719 60.6018 2.08719C59.2938 2.08719 58.4674 2.22435 57.5032 2.70633C57.3658 2.77504 57.2282 2.77567 57.1594 2.77567C56.6775 2.77567 56.2641 2.36254 56.2639 1.94949C56.2639 1.53635 56.4706 1.26104 56.8147 1.12332C58.1229 0.572515 59.0869 0.365535 60.8079 0.365509ZM60.6711 7.0452C58.1921 7.0452 56.8147 8.14751 56.8147 9.80008V9.86844C56.8147 11.5209 58.3292 12.4855 60.1194 12.4856C62.5982 12.4856 64.595 10.9703 64.595 8.90457V7.59598C63.6311 7.32062 62.323 7.04524 60.6711 7.0452Z" fill="white"/>
<path d="M3.65726 1.12352C3.24412 0.159526 2.14241 -0.253616 1.17841 0.159526C0.145556 0.572667 -0.198729 1.74324 0.28327 2.63838L4.48354 11.7964C5.17211 13.2423 5.86068 13.9998 7.16896 13.9998C8.5461 13.9998 9.16582 13.1733 9.85439 11.7964C9.85439 11.7964 13.5038 3.80872 13.5727 3.74009C13.6415 3.67123 13.7104 3.3958 14.1235 3.3958C14.4678 3.3958 14.6744 3.67123 14.6744 4.01552V11.7966C14.6744 12.9669 15.3629 14 16.6024 14C17.9106 14 18.5992 13.036 18.5992 11.7966V5.39288C18.5992 4.15345 19.4944 3.32717 20.6649 3.32717C21.8355 3.32717 22.6618 4.15345 22.6618 5.39288V11.7966C22.6618 12.9669 23.3503 14 24.5898 14C25.8981 14 26.5866 13.036 26.5866 11.7966V5.39288C26.5866 4.15345 27.4818 3.32717 28.6523 3.32717C29.8229 3.32717 30.6492 4.15345 30.6492 5.39288V11.7966C30.6492 12.9669 31.3378 14 32.5772 14C33.8855 14 34.574 13.036 34.574 11.7966V4.5666C34.574 1.88117 32.4395 0.0220367 29.8229 0.0220367C27.2063 0.0220367 25.6226 1.81232 25.6226 1.81232C24.7275 0.710606 23.5569 0.0220367 21.5601 0.0220367C19.4255 0.0220367 17.5664 1.81232 17.5664 1.81232C16.7401 0.710606 15.2252 0.0220367 14.0547 0.0220367C12.1955 0.0220367 10.6807 0.84832 9.78553 2.91403L7.10011 9.24887L3.65726 1.12352Z" fill="white"/>
<path d="M90.3475 0.296295C91.2426 0.296295 91.9998 1.0536 91.9999 1.94864C91.9999 2.84378 91.2427 3.60098 90.3475 3.60098C89.3837 3.60087 88.6952 2.84371 88.6952 1.94864C88.6953 1.05367 89.4523 0.296421 90.3475 0.296295ZM90.3475 0.641022C89.5904 0.64115 89.0401 1.26031 89.0399 1.94864C89.0399 2.70599 89.5902 3.25712 90.3475 3.25723C91.105 3.25723 91.6561 2.63721 91.6561 1.94864C91.6559 1.19143 91.1048 0.641022 90.3475 0.641022Z" fill="white"/>
<path d="M90.4861 1.05444C90.6924 1.05453 90.8297 1.12335 90.9675 1.19214C91.0364 1.261 91.1052 1.39915 91.1052 1.53687C91.1051 1.81185 90.9677 1.94945 90.7615 2.01831L91.0369 2.2937C91.0369 2.3625 91.1051 2.36273 91.1052 2.4314C91.1052 2.50025 91.0362 2.56909 90.9675 2.56909C90.899 2.56883 90.8298 2.50073 90.8298 2.50073L90.4861 2.08765H90.2107V2.4314C90.2107 2.50025 90.1414 2.63843 90.0037 2.63843C89.9347 2.63825 89.7976 2.56894 89.7976 2.4314V1.26147H89.7283C89.7283 1.19262 89.7976 1.05444 89.9353 1.05444H90.4861ZM90.073 1.94897H90.4167V1.88062C90.5545 1.88062 90.6921 1.8113 90.6921 1.67358C90.692 1.53611 90.6231 1.46753 90.4167 1.46753H90.073V1.94897Z" fill="white"/>
</g>
</svg>
