<svg width="144" height="26" viewBox="0 0 144 26" fill="none"
  xmlns="http://www.w3.org/2000/svg">
  <path d="M34.3837 15.0937C33.4947 14.159 32.4187 13.5465 31.1672 13.2358C32.3986 12.9195 33.4629 12.3012 34.3577 11.3608C35.6926 9.96018 36.3572 8.20298 36.3714 6.09787H32.9307C32.9252 7.30578 32.5827 8.29218 31.9037 9.06578C31.219 9.84518 30.3186 10.2334 29.2052 10.2334C28.1091 10.2334 27.2086 9.84228 26.5067 9.06578C25.8076 8.29508 25.4595 7.30578 25.4537 6.09787H22.0043C22.0043 8.24618 22.6689 10.012 23.998 11.401C24.8898 12.3328 25.9629 12.9425 27.2115 13.2474C26.009 13.5666 24.9474 14.182 24.0469 15.1196C22.6861 16.5374 22.0043 18.3176 22.0043 20.463H25.4508C25.4508 20.4544 25.4479 20.4457 25.4479 20.4371C25.4479 19.2206 25.7932 18.2169 26.4779 17.4318C27.1626 16.6438 28.0631 16.2469 29.1764 16.2469C30.2725 16.2469 31.173 16.6467 31.875 17.4433C32.5768 18.2399 32.9307 19.2407 32.9307 20.4371C32.9307 20.4457 32.9278 20.4544 32.9278 20.463H36.3688C36.3688 20.4429 36.3714 20.4285 36.3714 20.4112C36.3744 18.2629 35.7127 16.4914 34.3837 15.0937Z" fill="white"/>
  <path d="M4.5656 10.2474C3.85219 11.044 3.4897 12.0592 3.4897 13.2959C3.4897 14.5325 3.85793 15.542 4.5916 16.3328C5.3252 17.1208 6.2832 17.5119 7.4656 17.5119C8.6653 17.5119 9.6233 17.118 10.3396 16.3328C11.0531 15.5448 11.4156 14.5325 11.4156 13.2959C11.4156 12.0592 11.0473 11.044 10.3137 10.2474C9.5801 9.45078 8.6221 9.05387 7.4397 9.05387C6.2371 9.05387 5.2791 9.45368 4.5656 10.2474ZM3.59614 19.3094V25.1618H0V6.0975H3.40914V7.46928C4.4851 6.39371 5.9523 5.8588 7.8137 5.8588C9.9829 5.8588 11.7234 6.54325 13.0382 7.91508C14.3529 9.28398 15.0117 11.0613 15.0117 13.2441C15.0117 15.3751 14.3414 17.1525 13.0123 18.576C11.6774 19.9996 9.8908 20.7099 7.6526 20.7099C6.0415 20.7071 4.6894 20.2412 3.59614 19.3094Z" fill="white"/>
  <path d="M20.0375 20.4657H16.4356V6.09767H20.0375V20.4657ZM18.2365 5.18888C17.6468 5.18888 17.1376 4.9818 16.7175 4.57345C16.2975 4.15932 16.0875 3.66178 16.0875 3.06934C16.0875 2.45965 16.2975 1.94487 16.7175 1.52499C17.1376 1.10511 17.6468 0.895172 18.2365 0.895172C18.8465 0.895172 19.3557 1.10511 19.7671 1.52499C20.1814 1.94487 20.3827 2.45965 20.3827 3.06934C20.3827 3.6589 20.1756 4.16217 19.7671 4.57345C19.3557 4.9818 18.8436 5.18888 18.2365 5.18888Z" fill="white"/>
  <path d="M43.7629 8.89288C42.8684 8.89288 42.1377 9.15747 41.5766 9.68657C41.0126 10.2129 40.6847 10.9002 40.5955 11.7429H47.0943C47.0051 10.9002 46.6659 10.2187 46.073 9.68657C45.4834 9.15457 44.7151 8.89288 43.7629 8.89288ZM50.777 14.4491H40.5151C40.6043 15.3953 40.9665 16.143 41.6051 16.6923C42.2411 17.2387 43.0669 17.5119 44.0911 17.5119C45.5956 17.5119 46.8037 16.7987 47.7187 15.3637L50.3771 16.9742C49.8764 18.0296 49.1025 18.9183 48.0553 19.6315C47.0081 20.3476 45.6877 20.7071 44.0937 20.7071C41.8902 20.7071 40.1123 20.0427 38.7628 18.7083C37.4107 17.3739 36.7348 15.5793 36.7348 13.3246C36.7348 11.1591 37.3935 9.37318 38.7083 7.96688C40.0231 6.56051 41.7232 5.8588 43.7976 5.8588C45.9466 5.8588 47.6583 6.503 48.9271 7.79428C50.1988 9.08268 50.8344 10.8111 50.8344 12.9767C50.8286 13.5461 50.8114 14.0379 50.777 14.4491Z" fill="white"/>
  <path d="M56.0199 0.837616H52.418V20.4656H56.0199V0.837616Z" fill="white"/>
  <path d="M71.9209 5.93967C70.416 5.93967 69.2163 6.45732 68.3189 7.49549C67.5853 6.45732 66.4489 5.93967 64.9067 5.93967C63.526 5.93967 62.496 6.3538 61.8172 7.17629V6.09784H58.2152V20.4629H61.8172V11.4671C61.8172 10.7338 61.9868 10.1615 62.329 9.75019C62.6656 9.34189 63.1518 9.13479 63.779 9.13479C64.3891 9.13479 64.858 9.33899 65.1889 9.75019C65.5197 10.1644 65.6864 10.7165 65.6864 11.4154V20.4629H69.2883V11.4154C69.2883 10.7338 69.4524 10.1816 69.7861 9.76459C70.117 9.34469 70.5973 9.13479 71.2216 9.13479C71.8489 9.13479 72.3263 9.33609 72.6571 9.73869C72.9882 10.1414 73.152 10.7022 73.152 11.4183V20.4658H76.751V10.9869C76.751 9.48279 76.3628 8.26629 75.5831 7.33449C74.8064 6.40267 73.5866 5.93967 71.9209 5.93967Z" fill="white"/>
  <path d="M89.7301 7.44048C89.3017 6.95738 88.7033 6.57202 87.9437 6.2873C87.1812 6.0026 86.3643 5.8588 85.4867 5.8588C83.3004 5.8588 81.5283 6.55765 80.1674 7.95528C78.8065 9.35298 78.1277 11.1246 78.1277 13.2729C78.1277 15.4931 78.8065 17.2848 80.1674 18.6566C81.5283 20.0283 83.3033 20.7128 85.4867 20.7128C86.5255 20.7128 87.4144 20.5431 88.1594 20.2009C88.9047 19.8644 89.4454 19.4762 89.7849 19.0477V20.4684H93.1394V6.10324H89.7275V7.44048H89.7301ZM88.5765 16.3184C87.863 17.1151 86.9053 17.5119 85.7027 17.5119C84.5231 17.5119 83.565 17.1151 82.8285 16.3184C82.0949 15.5218 81.7268 14.5066 81.7268 13.27C81.7268 12.0535 82.0919 11.0469 82.8142 10.2503C83.5391 9.45648 84.5001 9.05678 85.6997 9.05678C86.8446 9.05678 87.7884 9.45368 88.5334 10.2503C89.2787 11.0469 89.6497 12.0535 89.6497 13.27C89.6526 14.5037 89.29 15.5218 88.5765 16.3184Z" fill="white"/>
  <path d="M107.618 3.84305H104.016V6.09774H99.56V3.84305H95.966V6.09774H94.623V9.1347H95.966V16.8421C95.966 19.3499 97.247 20.6038 99.807 20.6038C100.164 20.6038 100.503 20.5894 100.814 20.5635C101.125 20.5376 101.366 20.506 101.525 20.4686L101.766 20.4168V17.354H100.932C100.431 17.354 100.075 17.2332 99.871 16.9888C99.663 16.7472 99.563 16.3589 99.563 15.8211V9.1318H104.019V16.8392C104.019 19.347 105.296 20.6009 107.86 20.6009C108.216 20.6009 108.556 20.5865 108.867 20.5606C109.177 20.5347 109.419 20.5031 109.577 20.4657L109.819 20.414V17.3511H108.984C108.484 17.3511 108.127 17.2303 107.923 16.9859C107.716 16.7443 107.615 16.356 107.615 15.8183V9.1289H109.819V6.09774H107.615V3.84305H107.618Z" fill="white"/>
  <path d="M117.707 5.8588C115.629 5.8588 113.932 6.56051 112.617 7.96688C111.302 9.37318 110.644 11.1562 110.644 13.3246C110.644 15.5793 111.32 17.3739 112.672 18.7083C114.024 20.0427 115.799 20.7071 118.003 20.7071C119.597 20.7071 120.917 20.3476 121.964 19.6315C123.012 18.9154 123.785 18.0296 124.286 16.9742L121.628 15.3637C120.713 16.7958 119.505 17.5119 118 17.5119C116.976 17.5119 116.15 17.2387 115.514 16.6923C114.878 16.1459 114.513 15.3982 114.424 14.4491H124.686C124.72 14.0407 124.738 13.5461 124.743 12.9767C124.743 10.8082 124.108 9.08268 122.836 7.79428C121.564 6.50586 119.853 5.8588 117.707 5.8588ZM114.502 11.74C114.591 10.8974 114.919 10.2129 115.483 9.68377C116.046 9.15457 116.777 8.88998 117.672 8.88998C118.624 8.88998 119.389 9.15167 119.982 9.68377C120.572 10.2158 120.914 10.8974 121.003 11.74H114.502Z" fill="white"/>
  <path d="M129.929 7.25369V6.09759H126.327V20.4627H129.929V11.7085C129.929 11.0672 130.073 10.5869 130.358 10.2734C130.642 9.96279 131.126 9.80459 131.807 9.80459H132.719V6.04294C131.431 6.04583 130.498 6.44845 129.929 7.25369Z" fill="white"/>
  <path d="M143.025 13.3106C142.478 12.6376 141.603 12.1228 140.404 11.7662C140.153 11.6943 139.814 11.6052 139.382 11.4987C138.954 11.3895 138.637 11.309 138.442 11.2572C137.599 11.0242 137.179 10.5756 137.179 9.91408C137.179 9.55748 137.311 9.26418 137.573 9.03988C137.832 8.81838 138.177 8.70618 138.605 8.70618C139.664 8.70618 140.208 9.28718 140.246 10.4491H143.548C143.531 8.96508 143.102 7.83488 142.259 7.06698C141.419 6.29624 140.228 5.91373 138.689 5.91373C137.256 5.91373 136.08 6.30775 135.156 7.09288C134.236 7.88088 133.772 8.88168 133.772 10.0982C133.772 12.2091 134.765 13.6269 136.753 14.3402C137.038 14.4494 137.763 14.6651 138.928 14.9872C139.428 15.131 139.794 15.3122 140.018 15.525C140.243 15.7407 140.352 16.0542 140.352 16.4654C140.352 16.8767 140.191 17.1959 139.871 17.4202C139.546 17.6417 139.144 17.7538 138.66 17.7538C137.495 17.7538 136.917 17.1068 136.917 15.8184H133.479C133.427 17.216 133.804 18.3722 134.621 19.2838C135.435 20.1984 136.767 20.6556 138.608 20.6556C140.093 20.6556 141.336 20.2616 142.34 19.4765C143.344 18.6885 143.845 17.5985 143.845 16.2008C143.845 14.9441 143.571 13.9835 143.025 13.3106Z" fill="white"/>
</svg>
