<svg width="68" height="28" viewBox="0 0 68 28" fill="none" xmlns="http://www.w3.org/2000/svg">
<g opacity="0.8" clip-path="url(#clip0_1353_201)">
<g clip-path="url(#clip1_1353_201)">
<path d="M53.6214 14.4124C53.467 10.5358 50.2093 7.41638 46.2104 7.41638C42.119 7.41638 38.7841 10.6872 38.7841 14.7001C38.7841 18.7129 42.119 21.9838 46.2104 21.9838C47.7853 21.9838 49.252 21.4992 50.4563 20.6663V21.8475H53.6523L53.6214 14.4426V14.4124ZM46.2104 18.8643C43.8791 18.8643 41.98 17.0018 41.98 14.7152C41.98 12.4286 43.8791 10.5661 46.2104 10.5661C48.5418 10.5661 50.4409 12.4286 50.4409 14.7152C50.4409 17.0018 48.5418 18.8643 46.2104 18.8643Z" fill="white"/>
<path d="M33.174 17.6529C32.7939 18.0163 32.3529 18.3192 31.851 18.5312C31.3644 18.7432 30.817 18.8492 30.2391 18.8492C29.935 18.8492 29.646 18.8189 29.3723 18.7583C29.0986 18.6978 28.8248 18.6069 28.5663 18.5009C28.3078 18.3798 28.0645 18.2435 27.8364 18.0921C27.6083 17.9255 27.3954 17.7438 27.2129 17.5469L34.4058 14.7758L37.4624 13.5946C37.2951 12.5347 36.9149 11.5352 36.3371 10.6721C35.0293 8.70352 32.7786 7.41638 30.2391 7.41638C26.2093 7.41638 22.9246 10.6872 22.9246 14.7001C22.9246 15.0786 22.955 15.4421 23.0158 15.8055C23.1831 16.8655 23.5633 17.8649 24.1411 18.7281C24.4757 19.2126 24.8558 19.6669 25.2968 20.0606C25.7378 20.4543 26.2093 20.8026 26.7415 21.0903C27.2585 21.378 27.8212 21.6052 28.4143 21.7566C29.0073 21.908 29.6156 21.9838 30.2543 21.9838C31.258 21.9838 32.2312 21.7869 33.098 21.4083C33.98 21.0449 34.7556 20.4998 35.4247 19.8486C36.0938 19.1823 36.626 18.4101 36.991 17.5318C37.143 17.1683 37.2647 16.7746 37.3559 16.3809H34.0408C33.8431 16.8655 33.5542 17.2895 33.174 17.6529ZM30.2543 10.5358C31.4404 10.5358 32.5201 11.0507 33.2805 11.8381L26.0876 14.6092C26.1332 12.3681 27.9885 10.5358 30.2543 10.5358Z" fill="white"/>
<path d="M64.3326 21.8734H67.5141L67.5293 13.3468C67.5293 9.68593 65.1698 7.3064 61.5316 7.3064C57.9543 7.3064 55.4578 9.7927 55.4578 13.3468L55.4426 21.8582H58.6241L58.6393 13.2552C58.6393 11.6079 59.8571 10.4028 61.5316 10.4028C64.1347 10.4028 64.3478 12.5841 64.3478 13.2552L64.3326 21.8734Z" fill="white"/>
<path d="M14.9508 7.35222L12.4695 5.41504L10.4602 8.08439C7.41568 6.63531 3.67095 7.44375 1.53981 10.2046C-0.941458 13.4078 -0.363004 18.0144 2.83372 20.5007C4.05151 21.4464 5.46721 21.9497 6.89812 22.026C9.22716 22.1633 11.5866 21.1871 13.1089 19.2041C15.2553 16.4433 15.103 12.5994 12.9567 10.0063L14.9508 7.35222ZM10.6124 17.2669C9.19671 19.0821 6.57845 19.4177 4.75175 17.9991C2.94027 16.5805 2.60538 13.9417 4.02107 12.1265C4.70608 11.2418 5.69554 10.6775 6.79156 10.5402C7.05034 10.5097 7.30912 10.4944 7.56791 10.5097C8.40514 10.5554 9.21193 10.8605 9.88172 11.3791C11.6932 12.8129 12.0281 15.4518 10.6124 17.2669Z" fill="white"/>
<path d="M15.103 20.5312C14.692 21.065 14.2354 21.5379 13.733 21.9802C13.2459 22.3921 12.7131 22.7734 12.1499 23.0937C11.6019 23.3988 11.0082 23.6581 10.4145 23.8564C9.82083 24.0547 9.19671 24.192 8.57259 24.2683C7.94847 24.3445 7.32435 24.375 6.685 24.3293C6.04566 24.2835 5.42154 24.1767 4.81264 24.0242L4.67564 24.5276L4.05151 27.0749C4.84308 27.2884 5.64987 27.4105 6.47189 27.4715C6.50233 27.4715 6.548 27.4715 6.57845 27.4715C7.37001 27.5172 8.17681 27.4867 8.95315 27.3952C9.77517 27.2884 10.5972 27.1054 11.3887 26.8461C12.1803 26.5868 12.9567 26.2512 13.6873 25.8394C14.4332 25.4275 15.1335 24.9242 15.788 24.375C16.4578 23.8107 17.0667 23.17 17.5995 22.4684C17.6756 22.3768 17.7365 22.2701 17.8126 22.1633L15.2857 20.2871C15.2096 20.3634 15.1639 20.4549 15.103 20.5312Z" fill="white"/>
<path d="M20.2178 16.0466L20.2026 0H17.0211L17.0363 15.9703C17.0363 19.3413 19.2893 21.7361 22.5773 21.9802V18.838C21.1921 18.6092 20.2178 17.5109 20.2178 16.0466Z" fill="white"/>
</g>
</g>
<defs>
<clipPath id="clip0_1353_201">
<rect width="68" height="28" fill="white"/>
</clipPath>
<clipPath id="clip1_1353_201">
<rect width="67.5294" height="28" fill="white"/>
</clipPath>
</defs>
</svg>
